<svg xmlns="http://www.w3.org/2000/svg" viewBox="0 0 504.45 218.44"><defs><style>.cls-1{fill:#fff;stroke:#fff;stroke-miterlimit:10;}</style></defs><g id="레이어_2" data-name="레이어 2"><g id="레이어_1-2" data-name="레이어 1"><path class="cls-1" d="M187.87,1.8h4.67c7.31,0,14.63.1,21.93,0,9.57-.17,17.36,6.77,18.79,16.4a37.17,37.17,0,0,1,.36,5.05q0,38,0,76c0,4.59-1.06,8.88-4.24,12.37a40.86,40.86,0,0,1-3.33,3c1.81,1.92,3.86,3.62,5.31,5.74,1.84,2.69,2.24,6,2.24,9.2q.08,42.87,0,85.75c0,.35,0,.7-.07,1.18h-21.3v-2.06q0-44.68,0-89.38c0-.92.46-2.1-1.29-2.19-1.6-.08-2,.44-2,2q.08,38.43,0,76.86c0,4.41-.06,8.83,0,13.24,0,1.3-.46,1.65-1.69,1.64-5.92,0-11.85-.07-17.77,0-1.53,0-1.81-.57-1.8-1.9,0-7.07,0-14.14,0-21.21V4.24C187.71,3.47,187.81,2.71,187.87,1.8Zm24.25,100.36c0-.5.07-1,.07-1.57q0-38.34,0-76.69c0-1.47-.45-1.84-1.85-1.84-1.86,0-1.42,1.27-1.42,2.26q0,37.8,0,75.61C209,102.7,209.1,102.81,212.12,102.16Z"/><path class="cls-1" d="M74.26,1.92H96V4q0,96.27.06,192.54C96,208.75,85.5,218,74.73,217.69c-4.28-.14-8.54.07-12.6-1.81a21.13,21.13,0,0,1-12.34-19.82c.13-16.38,0-32.76,0-49.14V2h21V197.35a9.64,9.64,0,0,0,2.32,0,2.12,2.12,0,0,0,1-1.11,3.24,3.24,0,0,0,0-1.25V1.92Z"/><path class="cls-1" d="M298.37,101.13c.92.59,2,1.2,3,2a15.07,15.07,0,0,1,5.48,10.27,38.85,38.85,0,0,1,.33,5.06q0,38.07,0,76.15c0,5.38-1.09,10.43-4.63,14.71a19.11,19.11,0,0,1-14.34,7.11c-8.57.36-17.16.15-25.74.21-1,0-1.3-.42-1.26-1.3,0-.43,0-.85,0-1.27V5c0-3.16,0-3.17,3.23-3.17,6.95,0,13.9,0,20.85,0a21.8,21.8,0,0,1,21.59,19.3,42.05,42.05,0,0,1,.3,4.88q0,29,0,58c0,4.56-.71,9-3.72,12.58A42.91,42.91,0,0,1,298.37,101.13Zm-12.74,11.1c-3-.66-3.18-.5-3.18,2.24v79.17c0,2.91.22,3.07,3.18,2.33Zm.11-55.55V45.45c0-7.19,0-14.38,0-21.57,0-1.1-.08-1.78-1.5-1.83-1.69-.06-1.83.76-1.83,2.1q0,32.63,0,65.24c0,1.27.13,2,1.73,2s1.59-1,1.59-2.08Q285.74,73,285.74,56.68Z"/><path class="cls-1" d="M451.85,216.58V1.91h21V83.42l.44,0c.18-1.4.36-2.8.52-4.21,1.17-10,2.35-20,3.47-30,1.52-13.54,3-27.08,4.46-40.62.21-1.86.4-3.72.72-5.56.07-.45.61-1.17.94-1.17,6.76-.07,13.51-.06,20.5-.06-.45,3.71-.87,7.22-1.31,10.72Q500.81,26.36,499,40.17c-1.11,8.66-2.25,17.32-3.35,26-1.05,8.25-2.06,16.49-3.1,24.74-.65,5.08-1.52,10.15-1.92,15.25a41.73,41.73,0,0,0,.55,8.25q2.23,18.67,4.6,37.33c1.51,12,3.07,24,4.58,36.05,1.15,9.16,2.25,18.31,3.36,27.47a10.44,10.44,0,0,1,0,1.12,2.68,2.68,0,0,1-.7.2c-6.41,0-12.81,0-19.22,0-1,0-1.36-.34-1.47-1.34q-1.59-15.19-3.27-30.4c-.67-6-1.43-12.08-2.1-18.12-.77-6.95-1.46-13.91-2.22-20.85-.46-4.26-1-8.5-1.85-12.75v2.35l0,78.67c0,2.43,0,2.43-2.48,2.43H451.85Z"/><path class="cls-1" d="M427.07,21.25c-3.13-.48-3.17-.45-3.17,2.42V197.24h3.27V108.91c0-2.54,0-2.54,2.61-2.55,5.62,0,11.24,0,16.86-.08,1.58,0,2.07.49,2.07,2.08,0,29.5,0,59,0,88.49a21.19,21.19,0,0,1-20.83,20.81c-4.6,0-9.19.14-13.42-2.1-7.64-4-11.67-10.36-11.68-19-.07-29.31,0-58.62,0-87.94q0-43.06,0-86.12c0-9.46,4.63-17.2,13.11-20.2,12.72-4.5,27.13-.83,31.8,13.58a22.15,22.15,0,0,1,1,6.57c.06,26.11,0,52.22.08,78.33,0,1.8-.61,2.27-2.3,2.24-5.74-.1-11.48-.13-17.22,0-1.61,0-2.07-.47-2.06-2,.05-12.76,0-25.51,0-38.26V23.33C427.17,22.62,427.1,21.92,427.07,21.25Z"/><path class="cls-1" d="M372.13,216.5h-21.3q4.82-107.33,9.6-214.59h30.08c.16,2.31.36,4.64.46,7,.41,9.58.77,19.17,1.18,28.75Q393,57.89,394,78.15l1.44,31.66,1.83,41.24q.9,20.08,1.81,40.18.53,11.58,1.05,23.16c0,.65,0,1.31,0,2.07-.64,0-1.16.12-1.69.12-5.86,0-11.72,0-17.58,0-1.26,0-1.78-.23-1.81-1.68-.17-9.54-.43-19.08-.71-28.61-.22-7.73-.55-15.45-.77-23.18-.25-8.69-.44-17.38-.64-26.07,0-.9.05-1.68-1.26-1.66s-1.36.61-1.38,1.6q-.3,13.67-.64,27.34c-.28,11.17-.54,22.34-.84,33.51-.14,5.55-.35,11.1-.53,16.66C372.21,215.11,372.17,215.7,372.13,216.5ZM374,113.16c2.93.5,3,.44,3-2.06q-.39-20.85-.77-41.69Q376,58.18,375.75,47h-.25Q374.75,80,374,113.16Z"/><path class="cls-1" d="M25,83.51c0-.62-.11-1.32-.11-2q0-28.93,0-57.85c0-2.83,0-2.83-3.3-2.44v2.06c0,18.86.07,37.71,0,56.57,0,5.12,1.83,9.54,4,13.93q8,16.13,16.08,32.22a38.05,38.05,0,0,1,4.3,17.37c0,17.59.13,35.17.14,52.76,0,10.23-5.61,18.37-15.3,20.72C22,219,13.28,218.47,6.33,211.44A19,19,0,0,1,.56,198c-.1-18.61,0-37.23-.05-55.84,0-.8-.11-1.59,1.13-1.58,6.46,0,12.93,0,19.39,0a4.05,4.05,0,0,1,.87.25c0,2.69,0,5.4,0,8.11-.13,11.54-.29,23.08-.4,34.62,0,4.11.05,8.22,0,12.32,0,1.3.53,1.51,1.62,1.49s1.83-.07,1.83-1.51c-.05-17.64,0-35.29-.09-52.94,0-4.32-1.8-8.25-3.64-12C15.74,119.66,10.14,108.5,4.6,97.32A34.45,34.45,0,0,1,.88,82Q.79,51.35.86,20.7C.9,10,10.21.84,21,.72,25.83.67,30.66.55,35.08,3c6.84,3.84,11,9.52,11.09,17.44.17,20.55.06,41.1.08,61.65,0,.93,0,1.65-1.3,1.64-6.47,0-12.93,0-19.4,0C25.44,83.72,25.33,83.63,25,83.51Z"/><path class="cls-1" d="M99.3,1.8c5.77,0,11.39-.09,17,0,4,.08,8,0,11.88.75a21.21,21.21,0,0,1,16.65,19.1c.23,2.94.25,5.91.25,8.87q0,38.52,0,77.06a22.86,22.86,0,0,1-10.23,19.72,19.27,19.27,0,0,1-11.38,3.58h-3.14v4q0,39.9,0,79.79c0,1.45-.32,2-1.88,2-6.34-.08-12.68,0-19.17,0ZM120.2,66h0c0,14.31,0,28.62,0,42.93,0,1.1.43,1.28,1.37,1.36,1.6.13,2.2-.31,2.2-2.08q-.09-42.12,0-84.24c0-.3,0-.61,0-.91-.13-1.65-1.41-.89-2.22-1s-1.3.17-1.28,1.21c.07,2.65,0,5.31,0,8Z"/><path class="cls-1" d="M184.59,216.59h-2.22c-10.69,0-21.39,0-32.08,0-1.8,0-2.16-.56-2.16-2.25q.06-95,0-190,0-10.15,0-20.31c0-.7.07-1.41.11-2.19h36.18c.06.64.16,1.23.16,1.81,0,5.44,0,10.88,0,16.32,0,1.55-.38,2.12-2,2.07-3.86-.11-7.73,0-11.6-.07-1.52,0-1.94.46-1.94,1.95q.07,21.77,0,43.52c0,9.24,0,18.49-.06,27.73V98.7h10.51c1.21,0,2.42.06,3.62,0,1,0,1.43.32,1.43,1.35,0,6.16,0,12.32-.06,18.49a3.59,3.59,0,0,1-.25.74H169.12v2.53q0,36.52-.05,73.06c0,1.31.45,1.51,1.56,1.5,4.11,0,8.22,0,12.33,0,.77,0,1.64-.14,1.64,1.1C184.59,203.73,184.59,210,184.59,216.59Z"/><path class="cls-1" d="M349,216.48h-38.2V1.9H332V193.49c0,2.46,0,2.45,2.4,2.45h13.05c.83,0,1.56,0,1.56,1.18C348.94,203.51,349,209.9,349,216.48Z"/></g></g></svg>